<mxfile host="app.diagrams.net" modified="2024-06-23T13:08:58.138Z" agent="Mozilla/5.0 (Windows NT 10.0; Win64; x64) AppleWebKit/537.36 (KHTML, like Gecko) Chrome/126.0.0.0 Safari/537.36" etag="ZxnGgFNPMm6qoQW8IOdx" version="24.6.2" type="github">
  <diagram id="R2lEEEUBdFMjLlhIrx00" name="Page-1">
    <mxGraphModel dx="794" dy="554" grid="0" gridSize="10" guides="1" tooltips="1" connect="1" arrows="1" fold="1" page="1" pageScale="1" pageWidth="850" pageHeight="1100" math="0" shadow="0" extFonts="Permanent Marker^https://fonts.googleapis.com/css?family=Permanent+Marker">
      <root>
        <mxCell id="0" />
        <mxCell id="1" parent="0" />
        <mxCell id="Fbk4jdnog4Okz9gyXSYf-6" style="rounded=0;orthogonalLoop=1;jettySize=auto;html=1;exitX=1;exitY=0.5;exitDx=0;exitDy=0;entryX=0;entryY=0.5;entryDx=0;entryDy=0;startArrow=classic;startFill=1;strokeWidth=3;" edge="1" parent="1" source="Fbk4jdnog4Okz9gyXSYf-1" target="Fbk4jdnog4Okz9gyXSYf-3">
          <mxGeometry relative="1" as="geometry" />
        </mxCell>
        <mxCell id="Fbk4jdnog4Okz9gyXSYf-1" value="&lt;b&gt;&lt;font style=&quot;font-size: 14px;&quot;&gt;E-Commerce System&lt;/font&gt;&lt;/b&gt;" style="rounded=1;arcSize=10;whiteSpace=wrap;html=1;align=center;strokeWidth=3;fillColor=#d5e8d4;strokeColor=#82b366;gradientColor=#97d077;" vertex="1" parent="1">
          <mxGeometry x="370" y="220" width="170" height="70" as="geometry" />
        </mxCell>
        <mxCell id="Fbk4jdnog4Okz9gyXSYf-5" style="edgeStyle=orthogonalEdgeStyle;rounded=0;orthogonalLoop=1;jettySize=auto;html=1;exitX=1;exitY=0.5;exitDx=0;exitDy=0;entryX=0;entryY=0.5;entryDx=0;entryDy=0;startArrow=classic;startFill=1;strokeWidth=3;" edge="1" parent="1" source="Fbk4jdnog4Okz9gyXSYf-2" target="Fbk4jdnog4Okz9gyXSYf-1">
          <mxGeometry relative="1" as="geometry" />
        </mxCell>
        <mxCell id="Fbk4jdnog4Okz9gyXSYf-2" value="&lt;b&gt;&lt;font style=&quot;font-size: 14px;&quot;&gt;Customer&lt;/font&gt;&lt;/b&gt;" style="rounded=1;arcSize=10;whiteSpace=wrap;html=1;align=center;strokeWidth=3;fillColor=#b1ddf0;strokeColor=#10739e;" vertex="1" parent="1">
          <mxGeometry x="120" y="220" width="160" height="70" as="geometry" />
        </mxCell>
        <mxCell id="Fbk4jdnog4Okz9gyXSYf-3" value="&lt;font size=&quot;1&quot; style=&quot;&quot;&gt;&lt;b style=&quot;font-size: 14px;&quot;&gt;Admin&lt;/b&gt;&lt;/font&gt;" style="rounded=1;arcSize=10;whiteSpace=wrap;html=1;align=center;strokeWidth=3;fillColor=#fff2cc;strokeColor=#d6b656;gradientColor=#ffd966;" vertex="1" parent="1">
          <mxGeometry x="640" y="220" width="160" height="70" as="geometry" />
        </mxCell>
        <mxCell id="Fbk4jdnog4Okz9gyXSYf-7" value="&lt;h1&gt;&lt;b&gt;&lt;font style=&quot;font-size: 21px;&quot;&gt;Level 0 Data Flow Diagram&lt;/font&gt;&lt;/b&gt;&lt;/h1&gt;" style="text;html=1;align=center;verticalAlign=middle;resizable=0;points=[];autosize=1;strokeColor=none;fillColor=none;rounded=0;glass=0;strokeWidth=3;perimeterSpacing=2;gradientColor=none;" vertex="1" parent="1">
          <mxGeometry x="310" y="120" width="290" height="70" as="geometry" />
        </mxCell>
      </root>
    </mxGraphModel>
  </diagram>
</mxfile>
